<svg id="Layer_1" data-name="Layer 1" xmlns="http://www.w3.org/2000/svg" viewBox="0 0 220.32 220.32"><defs><style>.cls-1{fill:#231f20;}.cls-2{fill:#fff;}</style></defs><rect class="cls-1" width="220.32" height="220.32" rx="7.07"/><path class="cls-2" d="M47.86,376c1.39-7.71,2.18-15.59,4.29-23.09,3.87-13.78,8.63-27.3,12.76-41a35.91,35.91,0,0,0,1.65-11.25C66,283.42,65.14,266.22,64.39,249a8.84,8.84,0,0,1,0-3,25.64,25.64,0,0,1,1.89-3.78c1.49,1.25,4,2.31,4.28,3.77,1.12,6.2,1.66,12.51,2.22,18.8.75,8.28,1.32,16.57,2.07,26.25,1.49-2.12,2.35-3.25,3.11-4.44,8.11-12.79,16.89-25.08,29.25-34.12a64.47,64.47,0,0,1,16.14-8.76c16.33-5.78,33.14,6.38,34.89,24.28,1.88,19.31-3.52,36.9-11.68,54-10.2,21.3-25,39.07-42.22,55-1.56,1.45-3,3-5.49,5.4,7-1.93,12.81-3.63,18.67-5.12,14.86-3.77,29.74-7.51,44.65-11.08,2.58-.62,5.36-.38,8-.54v2.58c-8.68,2.3-17.35,4.63-26,6.89-23.11,6-46.42,11.37-68.15,21.69a6.43,6.43,0,0,1-3.28.81c-2.81-.34-3.59,1.21-4.36,3.51-1.67,5-3.2,10.19-8.5,12.81H55.62c-4.82-2.69-6.61-7.08-7-12.32a17.43,17.43,0,0,0-.8-3.2Zm23.92,15.65a3.45,3.45,0,0,0,1-.27c1.5-.85,3-1.65,4.44-2.64,30.51-21.64,53.34-49.44,66.93-84.46,5.08-13.11,8-26.84,5.55-40.91-2.37-13.39-7.73-16.87-18.42-15.2a37.33,37.33,0,0,0-14.14,5.69C98.4,266.07,86.32,284,76.32,303.47a10.61,10.61,0,0,0-.7,4.59c-.08,12.35.38,24.71-.23,37C74.64,360.53,73,375.94,71.78,391.63Zm-5.55-63.41c-9,25.24-14.53,51-9.12,77.95C65.33,380.84,66,354.58,66.23,328.22Z" transform="translate(1.1 -217.92)"/></svg>